<svg xmlns="http://www.w3.org/2000/svg" version="1.1" xmlns:xlink="http://www.w3.org/1999/xlink" width="512" height="512" x="0" y="0" viewBox="0 0 500 500" style="enable-background:new 0 0 512 512" xml:space="preserve" class=""><g><path fill="#fbb040" fill-rule="evenodd" d="M0 250C0 111.93 111.93 0 250 0s250 111.93 250 250-111.93 250-250 250S0 388.07 0 250zm265.35 72.6-38.67 38.73 12.9 8.41v.99h1.52l32.07 20.91 8.71 5.66 11.31-17.42-8.71-5.66-9.37-6.11c23.26-4.92 44.05-16.54 60.26-32.75 21.85-21.85 35.36-52.03 35.36-85.37 0-24.38-7.24-47.09-19.7-66.09-12.82-19.56-31.2-35.18-52.91-44.63l-9.52-4.15-8.3 19.04 9.52 4.15c17.94 7.81 33.15 20.75 43.79 36.98C343.91 211 349.9 229.8 349.9 250c0 27.59-11.18 52.56-29.26 70.64-13.75 13.75-31.48 23.51-51.33 27.39l10.76-10.78 7.32-7.36-14.73-14.65zm-30.7-145.2 38.67-38.73-12.9-8.41v-.99h-1.52l-32.07-20.91-8.71-5.66-11.31 17.42 8.71 5.66 9.37 6.11c-23.26 4.92-44.05 16.54-60.26 32.74-21.85 21.85-35.36 52.03-35.36 85.37 0 24.39 7.24 47.09 19.7 66.09 12.82 19.56 31.2 35.18 52.91 44.63l9.52 4.15 8.3-19.04-9.52-4.15c-17.94-7.81-33.15-20.75-43.79-36.98-10.3-15.7-16.29-34.5-16.29-54.7 0-27.59 11.18-52.56 29.26-70.64 13.75-13.75 31.49-23.51 51.33-27.39l-10.77 10.78-7.32 7.36 14.73 14.65z" clip-rule="evenodd" opacity="1" data-original="#fbb040" class=""></path></g></svg>