<svg xmlns="http://www.w3.org/2000/svg" version="1.1" xmlns:xlink="http://www.w3.org/1999/xlink" width="512" height="512" x="0" y="0" viewBox="0 0 512 512" style="enable-background:new 0 0 512 512" xml:space="preserve" class=""><g><circle cx="207.8" cy="207.8" r="207.8" fill="#d3e1eb" opacity="1" data-original="#d3e1eb"></circle><path fill="#b4cfde" d="M207.8 415.6c114.765 0 207.8-93.035 207.8-207.8S322.564 0 207.8 0z" opacity="1" data-original="#b4cfde" class=""></path><path fill="#f1f4f7" d="M344.978 304.335c-7.174-4.144-9.63-13.318-5.486-20.492 4.145-7.174 13.321-9.629 20.492-5.486l8.766 5.063a176.696 176.696 0 0 0 16.215-60.622h-10.07c-8.284 0-15-6.716-15-15s6.716-15 15-15h10.07a176.696 176.696 0 0 0-16.214-60.621l-8.766 5.063c-7.172 4.143-16.348 1.688-20.492-5.486s-1.688-16.348 5.486-20.492l8.747-5.052a178.769 178.769 0 0 0-44.349-44.345l-5.037 8.727c-4.143 7.176-13.316 9.633-20.49 5.493-7.175-4.142-9.634-13.315-5.492-20.49l5.052-8.753a176.675 176.675 0 0 0-60.608-16.208v10.071c0 8.284-6.716 15-15 15s-15-6.716-15-15V30.636a176.697 176.697 0 0 0-60.608 16.208l5.052 8.753c4.142 7.175 1.683 16.348-5.492 20.49-7.176 4.143-16.348 1.682-20.49-5.493l-5.037-8.727a178.79 178.79 0 0 0-44.349 44.346l8.747 5.052c7.174 4.144 9.63 13.318 5.486 20.492-4.145 7.174-13.318 9.629-20.492 5.486l-8.766-5.064A176.673 176.673 0 0 0 30.639 192.8h10.07c8.284 0 15 6.716 15 15s-6.716 15-15 15h-10.07a176.686 176.686 0 0 0 16.215 60.622l8.766-5.063c7.171-4.143 16.348-1.688 20.492 5.486s1.688 16.348-5.486 20.492l-8.747 5.052a178.769 178.769 0 0 0 44.349 44.345l5.037-8.727c4.142-7.176 13.316-9.633 20.49-5.493 7.175 4.142 9.634 13.315 5.492 20.49l-5.052 8.753a176.675 176.675 0 0 0 60.608 16.208v-10.071c0-8.284 6.716-15 15-15s15 6.716 15 15v10.071a176.697 176.697 0 0 0 60.608-16.208l-5.052-8.753c-4.142-7.175-1.683-16.348 5.492-20.49 7.174-4.14 16.349-1.684 20.49 5.493l5.037 8.727a178.785 178.785 0 0 0 44.349-44.345z" opacity="1" data-original="#f1f4f7"></path><path fill="#d3e1eb" d="M207.8 359.893c8.284 0 15 6.716 15 15v10.071a176.697 176.697 0 0 0 60.608-16.208l-5.052-8.753c-4.142-7.175-1.683-16.348 5.492-20.49 7.174-4.14 16.349-1.684 20.49 5.493l5.037 8.727a178.785 178.785 0 0 0 44.349-44.345l-8.747-5.052c-7.174-4.144-9.63-13.318-5.486-20.492 4.145-7.174 13.321-9.629 20.492-5.486l8.766 5.063a176.696 176.696 0 0 0 16.215-60.622h-10.07c-8.284 0-15-6.716-15-15s6.716-15 15-15h10.07a176.696 176.696 0 0 0-16.214-60.621l-8.766 5.063c-7.172 4.143-16.348 1.688-20.492-5.486s-1.688-16.348 5.486-20.492l8.747-5.052a178.769 178.769 0 0 0-44.349-44.345l-5.037 8.727c-4.143 7.176-13.316 9.633-20.49 5.493-7.175-4.142-9.634-13.315-5.492-20.49l5.052-8.753a176.675 176.675 0 0 0-60.608-16.208v10.071c0 8.284-6.716 15-15 15v304.187z" opacity="1" data-original="#d3e1eb"></path><path fill="#002f48" d="M207.8 238.867a14.95 14.95 0 0 1-10.603-4.39l-45.469-45.437c-5.86-5.856-5.863-15.353-.008-21.213s15.354-5.862 21.213-.007l34.862 34.837 69.73-69.73c5.857-5.858 15.355-5.858 21.213 0 5.858 5.857 5.858 15.355 0 21.213l-80.333 80.333a14.946 14.946 0 0 1-10.605 4.394z" opacity="1" data-original="#002f48"></path><path fill="#001824" d="M298.739 132.927c-5.857-5.858-15.355-5.858-21.213 0L207.8 202.653v36.213a14.95 14.95 0 0 0 10.606-4.394l80.333-80.333c5.859-5.857 5.859-15.355 0-21.212z" opacity="1" data-original="#001824"></path><path fill="#ffed90" d="M464.882 512H263.488c-16.752 0-32.402-9.014-40.843-23.525-8.369-14.593-8.369-32.624-.047-47.137l100.753-174.453c8.358-14.544 23.986-23.579 40.793-23.579 16.745 0 32.395 9.012 40.84 23.52l100.69 174.487c8.439 14.508 8.439 32.601-.031 47.163C497.34 502.955 481.704 512 464.882 512z" opacity="1" data-original="#ffed90"></path><path fill="#ffbe00" d="M505.643 488.475c8.471-14.562 8.471-32.655.031-47.163l-100.69-174.487c-8.445-14.507-24.095-23.52-40.84-23.52V512h100.738c16.822 0 32.458-9.045 40.761-23.525z" opacity="1" data-original="#ffbe00"></path><path fill="#002f48" d="M364.144 455.767c-8.284 0-15-6.716-15-15v-8.033c0-8.284 6.716-15 15-15s15 6.716 15 15v8.033c0 8.284-6.716 15-15 15zM364.144 392.657c-8.284 0-15-6.716-15-15v-33.29c0-8.284 6.716-15 15-15s15 6.716 15 15v33.29c0 8.284-6.716 15-15 15z" opacity="1" data-original="#002f48"></path><g fill="#001824"><path d="M379.144 440.767v-8.033c0-8.284-6.716-15-15-15v38.033c8.284 0 15-6.716 15-15zM379.144 377.657v-33.29c0-8.284-6.716-15-15-15v63.29c8.284 0 15-6.716 15-15z" fill="#001824" opacity="1" data-original="#001824"></path></g></g></svg>